<svg width="12" height="16" viewBox="0 0 12 16" fill="none" xmlns="http://www.w3.org/2000/svg">
    <path d="M1.59026e-06 13.9295L0.00130459 10.7586C0.0021249 10.3889 0.0757525 10.0231 0.217982 9.68193C0.360211 9.34076 0.568256 9.03096 0.830234 8.77021L2.2809 7.32687C2.33433 7.27367 2.40233 7.23752 2.47631 7.22298C2.55029 7.20844 2.62692 7.21616 2.69651 7.24517C2.76609 7.27419 2.82551 7.32319 2.86725 7.38598C2.90899 7.44876 2.93117 7.52252 2.93098 7.59791L2.92984 10.769C2.92897 11.1386 2.8553 11.5044 2.71304 11.8455C2.57079 12.1867 2.36273 12.4965 2.10075 12.7572L0.650082 14.2007C0.596644 14.2539 0.528624 14.29 0.454631 14.3046C0.380637 14.3191 0.303995 14.3114 0.2344 14.2823C0.164806 14.2533 0.105387 14.2043 0.0636627 14.1415C0.0219384 14.0787 -0.000216188 14.0049 1.59026e-06 13.9295Z" fill="#739CFC"/>
    <path d="M4.16699 14.7732L4.16813 7.15423C4.16835 6.78461 4.24142 6.41866 4.38315 6.07729C4.52488 5.73592 4.73249 5.42583 4.99413 5.16474L6.44284 3.71879C6.49619 3.66555 6.56413 3.62931 6.63808 3.61468C6.71202 3.60004 6.78864 3.60766 6.85826 3.63656C6.92787 3.66547 6.98735 3.71437 7.02918 3.77707C7.07101 3.83978 7.0933 3.91348 7.09324 3.98886L7.09211 11.6079C7.09189 11.9775 7.01882 12.3435 6.87709 12.6849C6.73536 13.0263 6.52775 13.3364 6.26611 13.5975L4.81756 15.0433C4.76421 15.0966 4.69626 15.1329 4.62229 15.1476C4.54832 15.1622 4.47166 15.1546 4.40201 15.1257C4.33236 15.0968 4.27286 15.0479 4.23102 14.9851C4.18919 14.9224 4.1669 14.8487 4.16699 14.7732Z" fill="#739CFC"/>
    <path d="M8.33398 15.6178V3.55105C8.33377 2.80463 8.63007 2.0887 9.1577 1.56074L10.6045 0.112515C10.6577 0.0589444 10.7256 0.0223912 10.7996 0.00749226C10.8737 -0.00740666 10.9505 2.05438e-05 11.0203 0.0288317C11.0901 0.0576429 11.1497 0.106539 11.1917 0.169317C11.2337 0.232095 11.2561 0.305926 11.256 0.381441L11.255 12.4484C11.2553 12.818 11.1828 13.1841 11.0416 13.5256C10.9004 13.8672 10.6933 14.1777 10.4321 14.4392L8.98537 15.8874C8.93213 15.941 8.86414 15.9776 8.79005 15.9925C8.71596 16.0074 8.63911 15.9999 8.56928 15.971C8.49945 15.9421 8.4398 15.8931 8.3979 15.8302C8.356 15.7673 8.33375 15.6934 8.33398 15.6178Z" fill="#739CFC"/>
</svg>
